<svg viewBox="0 0 64 64" xmlns="http://www.w3.org/2000/svg" xmlns:xlink="http://www.w3.org/1999/xlink">
    <!-- Exported on 2026-08-28 20:21:17 | Source file hash: [BFA3EE14D6FF4FE2D20F2FA9A4980C14F525B857E01B94E73B3F0A130FE3CDE2] -->
    <g>
        <defs>
            <linearGradient id="body-gradient" x1="0" x2="0" y1="0" y2="1">
                <stop color="#ffa24f" stop-color="#ffa24f" />
                <stop offset="1" color="#ff8b23" stop-color="#ff8b23" />
            </linearGradient>
            <linearGradient id="flap-gradient" x1="0" x2="0" y1="0" y2="1">
                <stop color="#5f4024" stop-color="#5f4024" stop-opacity="0.9" />
                <stop offset="1" color="#5f4024" stop-color="#5f4024" />
            </linearGradient>
            <linearGradient id="flap-shadow" x1="0" x2="1" y1="0" y2="0">
                <stop stop-color="#000000"/>
                <stop offset="1" stop-opacity="0"/>
            </linearGradient>
        </defs>
        <path fill="url(#body-gradient)" d="M 10 3 H 40 L 54 17 V 61 H 10 Z" />
        <rect stop-opacity=".3" color="#ffffff" opacity=".3" fill="#ffffff" stop-color="#ffffff" x="10" y="3" width="30" height="1" />
        <rect stop-opacity=".25" color="#000000" opacity=".25" fill="#000000" stop-color="#000000" x="10" y="60" width="44" height="1" />
        <g>
            <path fill="url(#flap-gradient)" d="M 54 17 l -14 -14 v 14 z" />
            <path opacity=".2" fill="url(#flap-shadow)" d="M 40 17 l 14 14 v -14 z"/>
        </g>
        <!-- 22x22 -->
        <g transform="translate(22 22)">
            <path stroke-width="1px" fill="none" color="#5f4024" stroke="#5f4024" stop-color="#5f4024" d="
                M 5.5 4.5 l -7 6.5 l 7 6.5
            " />
            <!-- Weird number is to correct the line width -->
            <!-- Manually calculated with cos and tan :) -->
            <path fill="#5f4024" color="#5f4024" stop-color="#5f4024" d="
                M 18.924 4 l -8 14 h 1.152 l 8 -14 z
            " />
            <ellipse stroke-width="1px" fill="none" color="#5f4024" stroke="#5f4024" stop-color="#5f4024" cx="12.75" cy="6.25" rx="1.75" ry="1.75" />
            <ellipse stroke-width="1px" fill="none" color="#5f4024" stroke="#5f4024" stop-color="#5f4024" cx="18.25" cy="15.75" rx="1.75" ry="1.75" />
        </g>
    </g>
</svg>
